<?xml version="1.0" encoding="UTF-8" standalone="no"?>
<svg
   height="295.00763"
   version="1.2"
   width="159.98381"
   id="svg1"
   sodipodi:docname="clean_palm_tree.svg"
   inkscape:version="1.3 (0e150ed, 2023-07-21)"
   xmlns:inkscape="http://www.inkscape.org/namespaces/inkscape"
   xmlns:sodipodi="http://sodipodi.sourceforge.net/DTD/sodipodi-0.dtd"
   xmlns="http://www.w3.org/2000/svg"
   xmlns:svg="http://www.w3.org/2000/svg">
  <sodipodi:namedview
     id="namedview1"
     pagecolor="#ffffff"
     bordercolor="#000000"
     borderopacity="0.25"
     inkscape:showpageshadow="2"
     inkscape:pageopacity="0.0"
     inkscape:pagecheckerboard="0"
     inkscape:deskcolor="#d1d1d1"
     inkscape:zoom="1.3383333"
     inkscape:cx="79.950187"
     inkscape:cy="206.60025"
     inkscape:window-width="1392"
     inkscape:window-height="946"
     inkscape:window-x="0"
     inkscape:window-y="25"
     inkscape:window-maximized="0"
     inkscape:current-layer="svg1" />
  <defs
     id="defs1" />
  <path
     d="m 98.452126,0.229816 -0.23221,0.22745 h -0.2322 l -0.46441,0.45489 h -0.23221 l -0.4644,0.45491 h -0.23221 l -0.4644,0.4549 h -0.23221 l -0.46441,0.45489 h -0.2322 l -0.2322,0.22746 h -0.23221 l -0.46441,0.4549 h -0.2322 l -0.46441,0.4549 h -0.2322 l -0.46441,0.4549 h -0.23221 l -0.4644,0.4549 h -0.23221 l -0.69661,0.68235 h -0.2322 l -0.69662,0.68235 h -0.2322 l -0.69661,0.68235 h -0.2322 l -1.16103,1.13725 h -0.2322 l -2.08984,2.04705 h -0.2322 v 0.22745 l -0.2322,0.22746 h -0.23221 l -0.2322,0.22744 v 0.22745 l -1.85763,1.81961 v 0.22745 l -0.92882,0.90979 v 0.22746 l -0.69661,0.68235 v 0.22745 l -0.46441,0.4549 v 0.22745 l -0.46441,0.4549 v 0.22745 l -0.464405,0.4549 v 0.22745 l -0.232203,0.22745 v 0.22745 l -0.232207,0.22745 v 0.22745 l -0.232199,0.22745 v 0.22745 l -0.232208,0.22745 v 0.22745 l -0.464411,0.4549 v 0.22745 l -0.232199,0.22745 v 0.22745 l -0.232204,0.22745 v 0.4549 l -0.232207,0.22746 v 0.22744 l -0.232203,0.22745 v 0.22745 l -0.232204,0.22745 v 0.22745 l -0.232203,0.22745 v 0.4549 l -0.232208,0.22745 v 0.22745 l -0.232203,0.22745 v 0.4549 l -0.232204,0.22745 v 0.4549 l -0.232203,0.22745 v 0.22745 l -0.232204,0.22746 v 0.45489 l -0.232202,0.22746 v 0.68235 l -0.232204,0.22745 v 0.4549 l -0.232204,0.22745 v 0.68234 l -0.232203,0.22745 v 0.45491 l -0.232207,0.22744 v 0.68235 l -0.232204,0.22745 v 0.90981 l -0.232204,0.22745 v 0.9098 l -0.232203,0.22745 v 1.13725 l -0.232207,0.22745 v 1.59215 l -0.232203,0.22746 v 2.04705 l -0.232204,0.22744 v 8.87056 l -0.232203,0.22745 -0.464411,-0.4549 v -0.22745 l -0.464407,-0.4549 v -0.22745 l -0.232204,-0.22745 v -0.22745 l -0.232203,-0.22745 v -0.22746 l -0.232203,-0.22745 v -0.22744 l -0.232207,-0.22745 v -0.22746 l -0.2322,-0.22745 v -0.22744 l -0.232203,-0.22746 v -0.22745 l -0.232207,-0.22744 v -0.22746 l -0.2322,-0.22744 v -0.22745 l -0.232208,-0.22746 v -0.22745 l -0.46441,-0.4549 v -0.22744 l -0.2322,-0.22745 v -0.22746 l -0.232207,-0.22745 v -0.22744 l -0.232203,-0.22746 v -0.22745 l -0.232204,-0.22744 v -0.22745 l -0.464407,-0.45491 v -0.22744 l -0.232207,-0.22746 v -0.22745 l -0.464407,-0.4549 v -0.22745 l -0.232204,-0.22745 v -0.22745 l -0.464406,-0.4549 v -0.22745 l -0.464407,-0.45489 v -0.22746 l -0.464411,-0.4549 v -0.22745 l -0.464407,-0.45489 v -0.22746 l -0.696614,-0.68235 v -0.22745 l -0.464406,-0.4549 v -0.22745 l -1.161018,-1.13725 v -0.22745 l -4.179674,-4.0941 h -0.232206 l -0.696611,-0.68236 h -0.232207 l -0.464407,-0.4549 H 57.119803 L 56.8876,25.021876 h -0.232203 l -0.464411,-0.4549 h -0.232203 l -0.232204,-0.22745 h -0.232203 l -0.232208,-0.22745 h -0.232199 l -0.232207,-0.22744 h -0.464404 l -0.232206,-0.22746 h -0.232204 l -0.232204,-0.22745 h -0.46441 l -0.232204,-0.22744 h -0.464407 l -0.232203,-0.22746 h -0.696614 l -0.232204,-0.22745 h -1.161021 l -0.232203,-0.22745 h -1.393225 l -0.232203,-0.22745 h -2.554242 l -0.232207,-0.22745 h -2.089838 l -0.232204,-0.22745 h -2.554242 l -0.232203,-0.22745 h -4.179677 l -0.2322,-0.22745 h -7.662736 l -0.2322,0.22745 h -3.250859 l -0.232204,0.22745 h -3.483059 l -0.232204,0.22745 h -2.786452 l -0.232204,0.22745 h -1.857631 l -0.232204,0.22745 H 13.69765 l -0.232207,0.22745 h -1.393222 l -0.232206,0.22745 h -0.232204 l -0.232203,0.22746 h -0.232204 l -0.464406,0.45489 v 0.4549 l 0.2322,0.22745 h 0.232206 l 0.232204,0.22745 h 0.464407 l 0.232206,0.22746 h 0.696612 l 0.232203,0.22744 h 0.464407 l 0.232207,0.22745 h 0.464406 l 0.232204,0.22746 h 0.696611 l 0.232207,0.22744 h 0.464406 l 0.232204,0.22745 h 0.464407 l 0.232207,0.22746 h 0.232204 l 0.232203,0.22745 h 0.69661 l 0.232204,0.22744 h 0.464406 l 0.232207,0.22746 h 0.464408 l 0.232204,0.22745 h 0.46441 l 0.232204,0.22744 h 0.464406 l 0.232207,0.22746 h 0.464408 l 0.232203,0.22744 h 0.69661 l 0.232203,0.22745 h 0.464411 l 0.232204,0.22746 h 0.696614 l 0.232204,0.22745 h 0.464406 l 0.232204,0.22744 h 0.464406 l 0.232208,0.22746 h 0.69661 l 0.232203,0.22745 h 0.464408 l 0.232206,0.22744 h 0.696612 l 0.232206,0.22745 h 0.696611 l 0.232203,0.22746 h 0.696615 l 0.232198,0.22744 h 0.696615 l 0.232203,0.22746 h 0.928817 l 0.232204,0.22745 h 0.928818 l 0.232203,0.22745 h 1.161022 l 0.232199,0.22744 h 1.393228 l 0.2322,0.22746 h 1.393228 l 0.232203,0.22745 -0.464406,0.4549 h -0.696615 l -0.232203,0.22745 h -0.464407 l -0.232204,0.22745 h -0.46441 l -0.232203,0.22745 h -0.232204 l -0.232207,0.22745 h -0.696606 l -0.232208,0.22745 v 0.4549 l 0.464407,0.4549 h 0.928818 l 0.232203,0.22745 h 0.696614 l 0.2322,0.22745 h 0.696618 l 0.232199,0.22745 h 0.696614 l 0.232204,0.22745 h 0.464407 l 0.232203,0.22746 h 0.696614 l 0.232204,0.22744 h 0.464407 l 0.232207,0.22745 h 0.464407 l 0.232203,0.22745 h 0.232204 l 0.232207,0.22745 h 0.464407 l 0.232203,0.22745 h 0.464407 l 0.232204,0.22745 h 0.464407 l 0.232207,0.22745 h 0.232203 l 0.232204,0.22745 h 0.46441 l 0.232204,0.22746 h 0.464407 l 0.232203,0.22744 h 0.232207 l 0.2322,0.22745 h 0.232207 l 0.232204,0.22746 h 0.232203 l 0.232204,0.22744 h 0.464406 l 0.232208,0.22745 h 0.232203 l 0.2322,0.22746 h 0.232207 l 0.232203,0.22745 h 0.232208 l 0.232199,0.22744 h 0.232207 l 0.232204,0.22745 h 0.232203 l 0.232204,0.22746 h 0.232203 l 0.232208,0.22744 h 0.232199 l 0.464411,0.45491 h 0.232203 l 0.232204,0.22745 h 0.232207 l 0.464407,0.45489 h 0.232203 l 0.464407,0.4549 h 0.232204 l 0.232207,0.22746 h 0.232203 l 0.696614,0.68235 h 0.232204 l 0.928814,0.90979 h 0.232203 l 0.696614,0.68236 v 0.45489 l -0.232207,0.22746 h -0.232203 l -0.232204,-0.22746 h -0.464411 l -0.232199,-0.22745 h -0.464407 l -0.232204,-0.22744 h -0.46441 l -0.232204,-0.22745 h -0.232203 l -0.232207,-0.22746 h -0.464407 l -0.232204,-0.22745 h -0.46441 l -0.2322,-0.22744 h -0.464411 l -0.232203,-0.22746 h -0.464411 l -0.232199,-0.22745 h -0.464411 l -0.232204,-0.22744 h -0.464407 l -0.232207,-0.22746 h -0.464407 l -0.232203,-0.22744 h -0.69661 l -0.232208,-0.22745 h -0.464406 l -0.232204,-0.22746 h -0.928814 l -0.232207,-0.22745 h -0.69661 l -0.232204,-0.22745 h -1.161024 l -0.232204,-0.22745 h -0.928814 l -0.232203,-0.22744 h -1.857635 l -0.2322,-0.22745 h -7.198326 l -0.232206,0.22745 h -1.857632 l -0.232203,0.22744 h -1.161022 l -0.232203,0.22745 h -1.16102 l -0.232205,0.22745 h -0.928817 l -0.232204,0.22745 H 25.77226 l -0.232204,0.22746 h -0.928818 l -0.232207,0.22745 h -0.69661 l -0.232204,0.22744 h -0.696614 l -0.232204,0.22746 h -0.464406 l -0.232204,0.22744 h -0.69661 l -0.232204,0.22745 h -0.46441 l -0.232203,0.22746 h -0.696614 l -0.232204,0.22744 h -0.464408 l -0.232207,0.22745 h -0.464406 l -0.232204,0.22746 h -0.464406 l -0.232204,0.22745 h -0.464407 l -0.232207,0.22744 h -0.464407 l -0.232204,0.22745 h -0.464406 l -0.232207,0.22746 h -0.464407 l -0.232204,0.22745 h -0.464411 l -0.232199,0.22745 h -0.464411 l -0.232203,0.22745 h -0.232203 l -0.232208,0.22745 h -0.464404 l -0.232206,0.22744 h -0.464407 l -0.232204,0.22746 h -0.232206 l -0.2322,0.22745 h -0.464412 l -0.232203,0.22745 H 9.75018 l -0.232204,0.22745 H 9.05357 l -0.232207,0.22745 H 8.589159 l -0.232208,0.22745 H 7.892545 l -0.232204,0.22745 H 7.428138 l -0.232203,0.22745 H 6.731524 l -0.2322,0.22745 H 6.267117 l -0.232204,0.22745 H 5.570506 l -0.232203,0.22745 H 5.106096 l -0.2322,0.22745 h -0.46441 l -0.232203,0.22745 H 3.945078 l -0.232207,0.22745 H 3.480672 l -0.232207,0.22745 H 3.016261 l -0.232203,0.22745 H 2.319651 l -0.232208,0.22745 H 1.855244 l -0.232207,0.22745 H 1.390833 l -0.232207,0.22745 h -0.2322 L 0.69422,50.041396 H 0.462016 l -0.2322,0.22745 v 0.68236 l 0.464404,0.45489 h 7.430532 l 0.232199,0.22746 h 11.378 l 0.232207,-0.22746 h 1.393225 l 0.232203,-0.22745 h 1.393224 l 0.232204,0.22745 -0.696615,0.68235 v 0.45491 l 0.232204,0.22744 h 0.232207 l 0.232204,0.22745 0.232203,-0.22745 0.232204,0.22745 h 0.464411 l 0.232199,0.22746 h 0.232207 l 0.232204,0.22744 h 0.232207 l 0.232199,-0.22744 h 0.464412 l 0.696609,-0.68235 h 13.003427 l 0.232204,0.22744 h 4.179673 l 0.232204,0.22745 h 2.786449 l 0.232207,0.22746 h 2.322038 l 0.232203,0.22744 h 1.857632 l 0.232207,0.22745 h 1.625428 l 0.232203,0.22746 h 1.393225 l 0.232199,0.22745 -0.232199,0.22744 h -0.696611 l -0.232206,0.22746 h -0.928818 l -0.232204,0.22745 h -0.69661 l -0.232207,0.22744 h -0.696611 l -0.232203,0.22745 h -0.928818 l -0.232203,0.22746 h -0.464407 l -0.232204,0.22745 h -0.696614 l -0.232203,0.22745 h -0.464407 l -0.232203,0.22744 h -0.696614 l -0.232204,0.22746 h -0.464407 l -0.232207,0.22745 h -0.69661 l -0.232204,0.22744 h -0.464407 l -0.232207,0.22746 h -0.69661 l -0.232207,0.22745 h -0.696611 l -0.2322,0.22745 h -0.46441 l -0.232204,0.22744 h -0.46441 l -0.232204,0.22745 h -0.464407 l -0.232203,0.22746 h -0.464407 l -0.232207,0.22744 h -0.464411 l -0.2322,0.22746 h -0.232207 l -0.232203,0.22745 h -0.464407 l -0.232204,0.22745 h -0.464406 l -0.232208,0.22744 h -0.232199 l -0.232208,0.22746 h -0.232203 l -0.232207,0.22745 h -0.464404 l -0.232207,0.22744 h -0.232203 l -0.232203,0.22746 h -0.464411 l -0.232199,0.22745 h -0.232208 l -0.232199,0.22745 h -0.232208 l -0.232203,0.22745 h -0.232204 l -0.232203,0.22745 h -0.232204 l -0.232206,0.22745 h -0.232204 l -0.232204,0.22745 h -0.232204 l -0.232206,0.22745 h -0.232204 l -0.232203,0.22745 h -0.232204 l -0.232203,0.22745 H 30.41634 l -0.464412,0.4549 H 29.71973 l -0.232208,0.22745 h -0.232204 l -0.464406,0.4549 h -0.232204 l -0.464407,0.4549 h -0.232206 l -0.696612,0.68235 h -0.232206 l -0.696611,0.68235 h -0.232203 l -1.625432,1.59216 h -0.232199 l -0.464411,0.45489 v 0.22745 l -1.625428,1.59216 v 0.22744 l -0.928814,0.90981 v 0.22745 l -0.464411,0.45489 v 0.22746 l -0.232203,0.22745 v 0.22744 l -0.464407,0.45491 v 0.22745 l -0.232207,0.22744 v 0.22746 l -0.464407,0.45489 v 0.22746 l -0.232204,0.22745 v 0.22744 l -0.232204,0.22746 v 0.22745 l -0.232207,0.22745 v 0.22745 l -0.232199,0.22745 v 0.22745 l -0.232207,0.22745 v 0.22745 l -0.232204,0.22745 v 0.4549 l -0.232203,0.22745 v 0.22745 l -0.232203,0.22745 v 0.22745 l -0.232204,0.22745 v 0.4549 l -0.232203,0.22745 v 0.45491 l -0.232204,0.22744 v 0.22745 l -0.232207,0.22746 v 0.45489 l -0.2322,0.22746 v 0.45489 l -0.232207,0.22745 v 0.4549 l -0.232204,0.22745 v 0.68235 l -0.232206,0.22745 v 0.4549 l -0.2322,0.22745 v 0.45491 l -0.232207,0.22745 v 0.68235 l -0.232205,0.22744 v 0.68236 l -0.232202,0.22744 v 0.68235 l -0.232204,0.22745 v 0.68235 l -0.232204,0.22746 v 0.9098 l -0.232207,0.22745 v 0.68235 l -0.232199,0.22745 v 0.9098 l -0.232207,0.22745 v 0.90979 l -0.232204,0.22746 v 1.13725 l -0.232203,0.22745 v 1.13726 l -0.232203,0.22744 v 1.3647 l -0.232208,0.22745 v 1.13725 l -0.2322,0.22745 v 1.13725 l -0.232204,0.22746 v 1.364694 l -0.232206,0.22745 v 1.3647 l -0.232204,0.22746 v 1.3647 l -0.232203,0.22745 v 1.13725 l 0.232203,0.22745 h 0.928814 v -0.22745 l 0.232208,-0.22745 h 0.232203 l 0.928813,-0.9098 h 0.232207 l 0.928815,-0.9098 h 0.232207 l 1.161017,-1.13725 h 0.232207 l 0.928814,-0.9098 h 0.232203 l 0.928817,-0.909804 h 0.232204 l 1.161022,-1.13726 h 0.232203 l 1.161021,-1.13725 h 0.232203 l 0.928814,-0.9098 h 0.232207 l 1.393221,-1.3647 h 0.232207 l 0.69661,-0.68235 v -0.22744 l 0.232208,-0.22745 v -0.45491 l 0.232204,-0.22744 v -0.45491 l 0.232203,-0.22745 v -0.4549 l 0.232203,-0.22745 v -0.45491 l 0.232203,-0.22744 v -0.4549 l 0.232204,-0.22745 v -0.4549 l 0.232204,-0.22745 v -0.4549 l 0.232206,-0.22745 v -0.4549 l 0.2322,-0.22745 v -0.22745 l 0.232207,-0.22745 v -0.4549 l 0.232205,-0.22745 v -0.22746 l 0.232206,-0.22744 v -0.45491 l 0.2322,-0.22745 v -0.22744 l 0.232207,-0.22745 v -0.4549 l 0.232204,-0.22745 v -0.22746 l 0.232203,-0.22745 v -0.22744 l 0.232203,-0.22745 v -0.22746 l 0.232204,-0.22744 v -0.22745 l 0.232208,-0.22746 v -0.22745 l 0.232198,-0.22745 v -0.22745 l 0.232208,-0.22745 v -0.22745 l 0.232204,-0.22745 v -0.22745 l 0.232203,-0.22745 v -0.22745 l 0.232203,-0.22744 v -0.22746 l 0.464407,-0.45489 v -0.22745 l 0.232204,-0.22746 v -0.22745 l 0.232206,-0.22744 v -0.22746 l 0.232204,-0.22745 v -0.22744 l 0.232204,-0.22746 v -0.22745 l 0.232204,-0.22745 v -0.4549 l 0.232206,-0.22745 v -0.22745 l 0.232204,-0.22745 0.232203,0.22745 v 0.68235 l -0.232203,0.22745 v 2.04706 l -0.232204,0.22745 v 2.04704 l -0.232206,0.22745 v 3.18431 l -0.232204,0.22745 v 2.95685 h 1.161021 l 1.857631,-1.81961 h 0.232203 l 1.393229,-1.36469 h 0.232199 l 1.625428,-1.59215 h 0.232207 l 2.786449,-2.72941 h 0.232204 l 4.411877,-4.32155 h 0.232203 l 1.857631,-1.8196 h 0.232208 l 1.625428,-1.59215 h 0.232199 l 1.161025,-1.13726 h 0.2322 l 0.928817,-0.9098 h 0.232204 l 0.696614,-0.68235 h 0.232204 l 0.46441,-0.45489 h 0.2322 l 0.464406,-0.4549 h 0.232208 l 0.464407,-0.45491 h 0.232203 l 0.464411,-0.45489 H 56.8876 l 0.232203,-0.22746 h 0.232204 l 0.464407,-0.45489 h 0.232207 l 0.232204,-0.22746 h 0.232207 l 0.2322,-0.22745 h 0.232206 l 0.232204,-0.22744 h 0.232203 l 0.464403,-0.45491 h 0.232208 l 0.232204,-0.22744 h 0.232207 l 0.232199,-0.22745 h 0.232207 l 0.232204,0.22745 -4.411877,4.32155 v 0.22744 l -1.393224,1.36471 v 0.22744 l -1.161018,1.13726 v 0.22745 l -0.696614,0.68235 v 0.22745 l -0.696614,0.68235 v 0.22745 l -0.69661,0.68235 v 0.22745 l -0.696614,0.68235 v 0.22745 l -0.464407,0.45491 v 0.22744 l -0.464411,0.45491 v 0.22744 l -0.464407,0.45491 v 0.22745 l -0.464407,0.45489 v 0.22746 l -0.464407,0.45489 v 0.22745 l -0.464406,0.4549 v 0.22745 l -0.232208,0.22745 v 0.22745 l -0.46441,0.4549 v 0.22746 l -0.2322,0.22745 v 0.22744 l -0.464411,0.45491 v 0.22744 l -0.232199,0.22745 v 0.22746 l -0.464411,0.45489 v 0.22746 l -0.232203,0.22745 v 0.22744 l -0.232204,0.22745 v 0.22746 l -0.232207,0.22745 v 0.22744 l -0.464407,0.45491 v 0.22744 l -0.232203,0.22746 v 0.22745 l -0.232204,0.22745 v 0.22745 l -0.232203,0.22745 v 0.22745 l -0.232204,0.22745 v 0.22745 l -0.232207,0.22745 v 0.22745 l -0.232203,0.22745 v 0.22745 l -0.232204,0.22745 v 0.22745 l -0.232203,0.22745 v 0.22744 l -0.232207,0.22746 v 0.22745 l -0.232204,0.22745 v 0.22745 l -0.232203,0.22745 v 0.22745 l -0.232204,0.22745 v 0.22746 l -0.2322,0.22744 v 0.22745 l -0.232207,0.22746 v 0.22745 l -0.232203,0.22744 v 0.22746 l -0.232204,0.22744 v 0.22745 l -0.232203,0.22746 v 0.22745 l -0.232207,0.22744 v 0.4549 l -0.232204,0.22745 v 0.22745 l -0.232203,0.22745 v 0.22745 l -0.232204,0.22745 v 0.22746 l -0.232203,0.22744 v 0.45491 l -0.232207,0.22744 v 0.22746 l -0.2322,0.22745 v 0.45489 l -0.232207,0.22746 v 0.22745 l -0.232204,0.227444 v 0.45491 l -0.232207,0.22745 v 0.22744 l -0.2322,0.22746 v 0.45489 l -0.232207,0.22746 v 0.22745 l -0.232203,0.22745 v 0.4549 l -0.232204,0.22745 v 0.22745 l -0.232203,0.22745 v 0.4549 l -0.232204,0.22745 v 0.4549 l -0.232203,0.22745 v 0.22745 l -0.232203,0.22745 v 0.4549 l -0.232208,0.22744 v 0.45491 l -0.232199,0.22745 v 0.45491 l -0.232208,0.22744 v 0.4549 l -0.232203,0.22745 v 0.68235 l -0.232207,0.22745 v 0.4549 l -0.2322,0.22745 v 0.4549 l -0.232204,0.22745 v 0.68235 l -0.232207,0.22745 v 0.4549 l -0.232203,0.22745 v 0.68235 l -0.232203,0.22746 V 113.5 l -0.232204,0.22745 v 0.4549 l -0.232207,0.22745 v 0.68235 l -0.232199,0.22745 v 0.68235 l -0.232208,0.22745 v 0.68235 l -0.232199,0.22745 v 0.68235 l -0.232208,0.22745 v 0.4549 l -0.232203,0.22745 v 0.68235 l -0.232204,0.22745 v 0.4549 l -0.232203,0.22745 v 0.4549 l -0.232204,0.22746 v 0.45489 l -0.232206,0.22745 v 0.4549 l -0.232204,0.22745 v 0.68236 l -0.232204,0.22744 v 0.4549 l -0.232204,0.22745 v 0.4549 l -0.232206,0.22745 v 0.68235 l -0.232204,0.22745 v 0.45491 l -0.232203,0.22744 v 0.45491 l -0.232204,0.22744 v 1.36471 h 0.232204 l 0.232203,0.22745 h 0.696614 l 0.464408,-0.4549 h 0.232206 l 3.018652,-2.95686 v -0.22745 l 1.393221,-1.3647 v -0.22745 l 1.393225,-1.3647 v -0.22745 l 1.393228,-1.3647 v -0.22745 l 1.393221,-1.3647 v -0.22745 l 1.161024,-1.13725 v -0.22745 l 1.161018,-1.13725 v -0.22746 l 0.928817,-0.9098 v -0.22744 l 0.696611,-0.68236 v -0.22744 l 0.69661,-0.68235 v -0.22745 l 0.696614,-0.68235 v -0.22746 l 0.69661,-0.68235 v -0.22745 l 0.464411,-0.4549 v -0.22745 l 0.464407,-0.4549 v -0.22745 l 0.464411,-0.4549 v -0.22745 l 0.464406,-0.45489 v -0.22746 l 0.464407,-0.4549 v -0.22745 l 0.464407,-0.45489 v -0.22746 l 0.232208,-0.22745 v -0.22745 l 0.464406,-0.45491 v -0.22744 l 0.232204,-0.22745 v -0.22745 l 0.464407,-0.4549 v -0.22745 l 0.232207,-0.22745 v -0.22745 l 0.2322,-0.22745 v -0.22745 l 0.232207,-0.22745 v -0.22745 l 0.232203,-0.22745 v -0.22745 l 0.232204,-0.22745 v -0.4549 l 0.232203,-0.22745 v -0.22746 l 0.232204,-0.22744 v -0.22745 l 0.232207,-0.22746 v -0.45489 l 0.232203,-0.22746 v -0.22745 l 0.232204,-0.227444 v -0.45491 l 0.232204,-0.22744 v -0.22745 l 0.232206,-0.22745 v -0.22746 l 0.232204,-0.22744 v -0.22746 l 0.464407,-0.45489 0.464407,0.45489 v 0.68236 l 0.232203,0.22745 v 0.45489 l 0.232204,0.22746 v 0.454894 l 0.232203,0.22745 v 0.45491 l 0.232207,0.22744 v 0.45491 l 0.232204,0.22744 v 0.45491 l 0.232203,0.22745 v 0.4549 l 0.232203,0.22745 v 0.4549 l 0.232204,0.22745 v 0.4549 l 0.232208,0.22745 v 0.4549 l 0.232199,0.22745 v 0.4549 l 0.232207,0.22745 v 0.4549 l 0.232204,0.22745 v 0.22745 l 0.232207,0.22745 v 0.4549 l 0.2322,0.22745 v 0.4549 l 0.232206,0.22745 v 0.4549 l 0.232204,0.22745 v 0.4549 l 0.232203,0.22745 v 0.4549 l 0.232205,0.22745 v 0.4549 l 0.232198,0.22745 v 0.45491 l 0.232208,0.22744 v 0.45491 l 0.232204,0.22744 v 0.22745 l 0.232207,0.22746 v 0.45489 L 60.835066,113.5 v 0.45489 l 0.232207,0.22746 v 0.4549 l 0.232204,0.22744 v 0.22746 l 0.232203,0.22745 v 0.45489 l 0.232203,0.22746 v 0.4549 l 0.232204,0.22745 v 0.22745 l 0.232208,0.22745 v 0.22745 l 0.232203,0.22745 v 0.4549 l 0.232203,0.22745 v 0.4549 l 0.696611,0.68235 h 0.696614 v -0.22746 l 0.232204,-0.22745 v -1.13724 l 0.232202,-0.22745 v -1.3647 l 0.232204,-0.22745 v -1.59215 l 0.232204,-0.22745 v -1.3647 l 0.232207,-0.22746 v -1.3647 l 0.232203,-0.22745 v -1.59215 l 0.232203,-0.22745 v -1.59215 l 0.232204,-0.22745 v -1.59215 l 0.232208,-0.22745 v -1.8196 l 0.232203,-0.22745 v -2.95685 l 0.232199,-0.22746 v -5.003894 l 0.232208,-0.22746 v -4.549 l -0.232208,-0.22745 v -3.6392 l 0.232208,-0.22746 0.232203,0.22746 v 0.22745 l 0.696614,0.68235 v 0.22744 l 0.464407,0.45491 v 0.22745 l 0.696611,0.68235 v 0.22745 l 0.69661,0.68235 v 0.22745 l 1.393228,1.3647 h 0.464407 l 0.232203,-0.22746 v -0.22744 l 0.232203,-0.22745 v -0.4549 l 0.232204,-0.22745 v -1.3647 l 0.232208,-0.22745 v -3.41175 l 0.232199,-0.22745 v -2.50196 l 0.232208,-0.22745 v -1.59215 l 0.232203,-0.22745 0.464407,0.45491 v 0.22744 h 0.46441 l 0.232203,0.22745 v 0.9098 l 0.232204,0.22745 v 1.13726 l 0.232204,0.22744 v 1.13726 l 0.232207,0.22745 v 1.13724 l 0.232203,0.22746 v 0.9098 l 0.232204,0.22744 v 1.13726 l 0.232204,0.22745 v 0.9098 l 0.232202,0.22745 v 1.13724 l 0.232204,0.22746 v 1.13725 l 0.232203,0.22745 v 1.3647 l 0.232204,0.22746 v 1.36469 l 0.232203,0.22745 v 1.59215 l 0.232208,0.22745 v 1.3647 l 0.232203,0.22746 v 1.592154 l 0.232204,0.22745 v 1.59215 l 0.232203,0.22745 v 1.8196 l 0.232207,0.22745 v 1.81961 l 0.232204,0.22744 v 2.2745 l 0.232199,0.22745 v 2.50195 l 0.232207,0.22745 v 3.1843 l 0.232204,0.22746 v 4.0941 l 0.232208,0.22745 v 7.05096 l 0.232199,0.22745 v 35.70967 l -0.232199,0.22745 v 10.69016 l -0.232208,0.22744 v 5.23136 l -0.232204,0.22746 v 4.09409 l -0.232207,0.22745 v 3.86666 l -0.232199,0.22744 v 2.04706 l -0.232204,0.22745 v 1.81959 l -0.232207,0.22745 v 1.59217 l -0.232203,0.22745 v 2.7294 l -0.232204,0.22745 v 2.27451 l -0.232203,0.22745 v 1.59214 l -0.232208,0.22745 v 1.36469 l -0.232203,0.22747 v 1.13722 l -0.232204,0.22744 v 1.59218 l -0.232203,0.22744 v 1.36473 l -0.232204,0.22744 v 1.36469 l -0.232202,0.22745 v 1.36472 l -0.232204,0.22744 v 1.3647 l -0.232204,0.22742 v 1.36471 l -0.232203,0.22745 v 1.13727 l -0.232207,0.22745 v 1.13724 l -0.232204,0.22748 v 1.36469 l -0.232204,0.22742 v 1.13727 l -0.232203,0.22746 v 0.90982 l -0.232207,0.22745 v 1.13724 l -0.232203,0.22744 v 0.90982 l -0.232204,0.22743 v 1.13724 l -0.232203,0.22748 v 1.13724 l -0.232203,0.22745 v 0.90982 l -0.232208,0.22742 v 0.90982 l -0.232199,0.22742 v 0.68237 l -0.232208,0.22745 v 0.90977 l -0.232204,0.22744 v 0.90983 l -0.232203,0.22744 v 0.9098 l -0.232203,0.22747 v 0.68235 l -0.232207,0.22745 v 0.90979 l -0.2322,0.22748 v 0.68232 l -0.232203,0.22747 v 0.68232 l -0.232207,0.22748 v 0.68234 l -0.2322,0.22745 v 0.68234 l -0.232208,0.22745 v 0.68235 l -0.232203,0.22745 v 0.68237 l -0.232207,0.22742 v 0.6824 l -0.2322,0.22742 v 0.68234 l -0.232207,0.22745 v 0.4549 l -0.232203,0.22748 v 0.68234 l -0.232204,0.22745 v 0.45487 l -0.232203,0.22745 v 0.6824 l -0.232204,0.22742 v 0.4549 l -0.232207,0.22747 v 0.45487 l -0.2322,0.22747 v 0.45491 l -0.232207,0.22744 v 0.68234 l -0.232204,0.22743 v 0.45495 l -0.232203,0.22745 v 0.45487 l -0.232203,0.22745 v 0.4549 l -0.232208,0.22744 v 0.45493 l -0.232199,0.22744 v 0.4549 l -0.232203,0.22745 v 0.45489 l -0.232208,0.22745 v 0.45492 l -0.232204,0.22743 v 0.68238 l -0.232203,0.22744 v 0.45488 l -0.232203,0.22747 v 0.22747 l -0.232207,0.22742 v 0.4549 l -0.232204,0.22745 v 0.4549 l -0.232204,0.22744 v 0.45493 l -0.232202,0.22742 v 0.45492 l -0.232204,0.22745 v 0.22742 l -0.232208,0.22745 v 0.45495 l -0.2322,0.22742 v 0.4549 l -0.232206,0.22745 v 0.22745 l -0.2322,0.22744 v 0.45493 l -0.232207,0.22745 v 0.22745 l -0.232204,0.22745 v 0.45489 l -0.232203,0.22742 v 0.22745 l -0.232203,0.22748 v 0.45493 l -0.232208,0.22741 v 0.4549 l -0.232204,0.22747 v 0.22743 l -0.232203,0.22744 v 0.45493 l -0.232203,0.22744 v 0.22746 l -0.232204,0.22745 v 0.45489 l -0.232207,0.22743 v 0.22746 l -0.232199,0.22746 v 0.45489 l -0.232207,0.22745 v 0.22745 l -0.232204,0.22748 v 0.22744 l -0.232208,0.22742 v 0.45493 l -0.232198,0.22745 v 0.22744 l -0.232205,0.22745 v 0.4549 l -0.232203,0.22745 v 0.22745 l -0.232204,0.22744 v 0.22748 l -0.232206,0.22745 v 0.4549 l -0.2322,0.22745 v 0.22744 l -0.232207,0.22743 v 0.22745 l -0.232204,0.22744 v 0.2275 l -0.232207,0.22743 v 0.45489 l -0.232199,0.22745 v 0.22745 l -0.232208,0.22745 v 0.22745 l -0.232204,0.22745 v 0.22747 l -0.232203,0.22742 v 0.22747 l -0.232203,0.22745 v 0.22746 l -0.232204,0.22741 v 0.45491 l -0.232207,0.22746 v 0.22749 l -0.232203,0.22742 v 0.22744 l -0.232204,0.22746 v 0.22744 l -0.232203,0.22745 v 0.22745 l -0.232208,0.22745 v 0.22747 l -0.232199,0.22745 v 0.22745 l -0.232207,0.22745 v 0.22744 l -0.2322,0.22745 v 0.22743 l -0.232204,0.22747 v 0.22745 l -0.232206,0.22747 v 0.22742 l -0.232204,0.22746 v 0.22744 l -0.232204,0.22748 v 0.22742 l -0.232203,0.22744 v 0.22746 l -0.232207,0.22747 v 0.22745 l -0.464407,0.4549 v 0.22745 l -0.232204,0.22745 v 0.22741 l -0.232203,0.22748 v 0.22745 l -0.232207,0.22747 v 0.22743 l -0.2322,0.22744 v 0.22745 l -0.464411,0.45492 v 0.22743 l -0.232203,0.22745 v 0.22744 l -0.464411,0.45493 v 0.22745 l -0.232199,0.22745 v 0.22744 l -0.232208,0.22746 v 0.22744 l -0.464407,0.4549 v 0.22747 l -0.232203,0.22743 v 0.22747 l -0.464411,0.4549 v 0.22742 l -0.232199,0.22744 v 0.22746 l -0.464411,0.45495 v 0.22742 l -0.464407,0.4549 v 0.22744 l -0.232203,0.22745 v 0.22745 l -1.161021,1.13727 v 0.22745 l -0.232204,0.22745 v 0.45486 l 0.464407,0.45496 h 19.969545 l 0.464411,-0.45496 v -0.22744 l 0.696614,-0.68232 v -0.22745 l 0.2322,-0.22748 v -0.22741 l 0.232207,-0.22748 v -0.4549 l 0.232204,-0.22745 v -0.22744 l 0.232203,-0.22745 v -0.22745 l 0.232204,-0.22742 v -0.45495 l 0.232203,-0.22746 v -0.22744 l 0.232207,-0.22742 v -0.22745 l 0.2322,-0.22745 v -0.22747 l 0.232207,-0.22743 v -0.22747 l 0.232203,-0.22745 v -0.22745 l 0.232208,-0.22744 v -0.4549 l 0.2322,-0.22745 v -0.22745 l 0.232207,-0.22744 v -0.45493 l 0.232203,-0.22745 v -0.22743 l 0.2322,-0.22744 v -0.45493 l 0.232207,-0.22744 v -0.4549 l 0.232203,-0.22745 v -0.45489 l 0.232203,-0.22745 v -0.4549 l 0.232204,-0.22745 v -0.45492 l 0.232208,-0.22746 v -0.45486 l 0.232199,-0.22748 v -0.4549 l 0.232208,-0.22742 v -0.22747 l 0.232203,-0.22745 v -0.4549 l 0.232203,-0.22745 v -0.45489 l 0.232204,-0.22745 v -0.45492 l 0.232203,-0.22745 v -0.4549 l 0.232207,-0.22744 v -0.4549 l 0.232203,-0.22742 v -0.45495 l 0.232204,-0.22746 v -0.45486 l 0.232204,-0.22746 v -0.45492 l 0.232207,-0.22742 v -0.45492 l 0.232203,-0.22745 v -0.4549 l 0.232204,-0.22745 v -0.45489 l 0.232204,-0.22743 v -0.45494 l 0.232202,-0.22745 v -0.45487 l 0.232204,-0.22745 v -0.4549 l 0.232203,-0.22745 v -0.45492 l 0.232204,-0.22745 v -0.45489 l 0.232203,-0.22746 v -0.68234 l 0.232208,-0.22748 v -0.68231 l 0.232203,-0.22748 v -0.68232 l 0.232204,-0.22747 v -0.45492 l 0.232203,-0.22743 v -0.68234 l 0.232207,-0.22746 v -0.90981 l 0.232204,-0.22743 v -0.45492 l 0.232199,-0.22745 v -0.68234 l 0.232207,-0.22748 v -0.68232 l 0.232204,-0.22744 v -0.68235 l 0.232208,-0.22747 v -0.68235 l 0.232199,-0.22745 v -0.90979 l 0.232207,-0.22748 v -0.68232 l 0.232203,-0.22744 v -1.13727 l 0.232205,-0.22745 v -0.68235 l 0.2322,-0.22745 v -0.90982 l 0.2322,-0.22742 v -0.90982 l 0.23221,-0.22743 v -0.68237 l 0.2322,-0.22744 v -0.9098 l 0.23221,-0.22744 v -0.68237 l 0.2322,-0.22743 v -0.90979 l 0.23221,-0.22745 v -0.68238 l 0.2322,-0.22744 v -0.9098 l 0.23221,-0.22745 v -0.90981 l 0.2322,-0.22745 v -0.90979 l 0.2322,-0.22748 v -0.90977 l 0.23221,-0.22745 v -1.13727 l 0.2322,-0.22745 v -0.90976 l 0.2322,-0.22748 v -1.13724 l 0.23221,-0.22747 v -1.13725 l 0.23221,-0.22744 v -1.13724 l 0.23219,-0.22745 v -1.36473 l 0.23221,-0.22741 v -1.36472 l 0.23221,-0.22745 v -1.36469 l 0.2322,-0.22747 v -1.59217 l 0.2322,-0.22742 v -1.3647 l 0.23221,-0.22747 v -1.36466 l 0.2322,-0.22745 v -1.59217 l 0.2322,-0.22745 v -1.81959 l 0.23221,-0.22747 v -1.81959 l 0.2322,-0.22744 v -1.81963 l 0.23221,-0.22745 v -2.04703 l 0.2322,-0.22748 v -2.50196 l 0.23221,-0.22745 v -2.50193 l 0.2322,-0.22745 v -2.27451 l 0.2322,-0.22745 v -2.95685 l 0.23221,-0.22746 v -2.95685 l 0.2322,-0.22745 v -2.50196 l 0.2322,-0.22742 v -4.77647 l 0.23221,-0.22745 v -8.87054 l 0.23221,-0.22745 v -21.83523 l -0.23221,-0.22745 v -7.96076 l -0.23221,-0.22745 v -4.77645 l -0.2322,-0.22745 v -5.23135 l -0.2322,-0.22745 v -4.32156 l -0.23221,-0.22744 v -4.32156 l -0.2322,-0.22745 v -4.32155 l -0.2322,-0.22746 v -3.18429 l -0.23221,-0.22745 v -3.41176 l -0.2322,-0.22745 v -2.04705 l -0.23221,-0.22745 v -2.04705 l -0.2322,-0.22745 v -2.04705 l -0.23221,-0.22745 v -1.59215 l -0.2322,-0.22746 v -1.59214 l -0.2322,-0.22746 v -1.59215 l -0.23221,-0.22744 v -1.36471 l -0.2322,-0.22745 v -1.3647 l -0.2322,-0.22745 v -1.13725 l -0.23221,-0.22745 v -1.13725 l -0.23221,-0.22745 v -1.13725 l -0.23219,-0.22745 v -0.9098 l -0.23221,-0.22745 v -0.9098 l -0.23221,-0.22745 v -0.90981 l -0.2322,-0.22744 v -1.13726 l -0.2322,-0.22745 v -1.364694 l -0.23221,-0.22746 v -1.59215 l -0.2322,-0.22745 v -2.2745 l -0.2322,-0.22744 v -2.04706 l -0.23221,-0.22745 v -1.59215 l -0.2322,-0.22745 v -1.3647 l -0.23221,-0.22745 v -1.36471 l -0.2322,-0.22744 v -1.59215 l -0.23221,-0.22745 v -1.59215 l -0.2322,-0.22746 v -1.3647 l -0.23221,-0.22745 v -1.59214 l -0.2322,-0.22746 v -1.3647 l -0.2322,-0.22745 v -1.59215 l -0.232205,-0.22745 v -1.3647 l -0.232203,-0.22745 v -0.68235 l 0.232203,-0.22746 v -0.22744 l 0.696605,-0.68235 1.39323,1.3647 v 0.22745 l 0.69661,0.68235 v 0.22745 l 0.46441,0.4549 v 0.22745 l 0.46441,0.4549 v 0.22745 l 0.4644,0.4549 v 0.22745 l 0.46442,0.4549 v 0.22745 l 0.4644,0.45491 v 0.22744 l 0.46441,0.45491 v 0.22744 l 0.46441,0.45491 v 0.22745 l 0.46441,0.45489 v 0.22746 l 0.2322,0.22744 v 0.22745 l 0.46441,0.4549 v 0.22745 l 0.46441,0.4549 v 0.22745 l 0.4644,0.4549 v 0.22746 l 0.23221,0.22745 v 0.22744 l 0.46441,0.45491 v 0.22744 l 0.2322,0.22745 v 0.22746 l 0.23221,0.22745 v 0.22744 l 0.2322,0.22746 v 0.22745 l 0.2322,0.22744 v 0.22745 l 0.23221,0.22746 v 0.22745 l 0.2322,0.22744 v 0.45491 l 0.2322,0.22744 v 0.22746 l 0.23221,0.22745 v 0.4549 l 0.2322,0.22745 v 0.68235 l 0.23221,0.22745 v 0.4549 l 0.2322,0.22745 v 0.68235 l 0.23221,0.22744 v 0.45491 l 0.4644,0.4549 h 0.23221 l 0.2322,0.22745 0.2322,-0.22745 h 0.23221 v -0.22745 l 0.46441,-0.4549 v -0.22746 l 0.46441,-0.45489 v -0.22745 l 0.2322,-0.22745 v -0.22745 l 0.2322,-0.22745 v -0.22745 l 0.23221,-0.22745 v -0.22745 l 0.2322,-0.22745 v -0.22745 l 0.23221,-0.22745 v -0.22745 l 0.2322,-0.22745 v -0.22745 l 0.2322,-0.22746 v -0.22744 l 0.23221,-0.22745 v -0.22746 l 0.2322,-0.22744 v -0.22745 l 0.23221,-0.22746 v -0.22745 l 0.2322,-0.22744 v -0.22745 l 0.46441,-0.4549 h 0.2322 l 0.2322,0.22744 v 0.22746 l 0.23221,0.22745 v 0.22744 l -0.23221,0.22745 v 1.13726 l -0.2322,0.22744 v 0.90981 l -0.2322,0.22745 v 0.4549 l -0.23221,0.22745 v 0.68235 l -0.2322,0.22745 v 0.68235 l -0.2322,0.22744 v 0.45491 l -0.23221,0.22745 v 0.68235 l -0.2322,0.22745 v 0.4549 l -0.23221,0.22745 v 0.45491 l -0.2322,0.22744 v 0.4549 l -0.2322,0.22745 v 0.45491 l -0.23221,0.22744 v 0.9098 l -0.2322,0.22745 v 0.68236 l 0.2322,0.22744 v 0.45491 l 0.23221,0.22744 v 0.22746 l 0.2322,0.22745 v 0.22745 l 0.2322,0.22744 v 0.22746 l 0.23221,0.22745 v 0.227444 l 0.2322,0.22745 v 0.22746 l 0.23221,0.22745 v 0.22744 l 0.2322,0.22746 v 0.22745 l 0.2322,0.22744 v 0.22746 l 0.23221,0.22745 v 0.22745 l 0.2322,0.22745 v 0.22745 l 0.2322,0.22745 v 0.22745 l 0.23221,0.22745 v 0.22745 l 0.23221,0.22745 v 0.22745 l 0.2322,0.22745 v 0.4549 l 0.2322,0.22745 v 0.22745 l 0.23221,0.22745 v 0.22745 l 0.2322,0.22744 v 0.22746 l 0.23221,0.22745 v 0.4549 l 0.2322,0.22746 v 0.22744 l 0.2322,0.22745 v 0.22745 l 0.23221,0.22745 v 0.45491 l 0.2322,0.22744 v 0.22745 l 0.232204,0.22745 v 0.4549 l 0.23221,0.22745 v 0.4549 l 0.2322,0.22745 v 0.4549 l 0.23221,0.22745 v 0.4549 l 0.2322,0.22745 v 0.4549 l 0.2322,0.22745 v 0.68235 l 0.23221,0.22746 v 0.68235 l 0.2322,0.22745 v 0.9098 l 0.23221,0.22744 v 1.81961 l 0.2322,0.22745 v 0.68235 l 0.23221,0.22745 h 0.2322 l 0.23221,0.22745 1.39322,-1.3647 v -0.22745 l 0.4644,-0.4549 v -0.22745 l 0.46441,-0.4549 v -0.22746 l 0.23221,-0.22745 v -0.22744 l 0.2322,-0.22745 v -0.22746 l 0.23221,-0.22744 v -0.22745 l 0.2322,-0.22745 v -0.22746 l 0.23221,-0.22744 V 113.5 l 0.2322,-0.22746 v -0.22744 l 0.2322,-0.22745 v -0.22746 l 0.23221,-0.22745 v -0.4549 l 0.2322,-0.22745 v -0.22744 l 0.23221,-0.22746 v -0.4549 l 0.2322,-0.22745 v -0.22745 l 0.23221,-0.22745 v -0.4549 l 0.2322,-0.22745 v -0.4549 l 0.2322,-0.22745 v -0.68235 l 0.2322,-0.22745 v -0.4549 l 0.23221,-0.22744 v -0.68236 l 0.2322,-0.22745 v -0.68235 l 0.2322,-0.22745 v -0.68235 l 0.23221,-0.22745 v -0.9098 l 0.2322,-0.22745 v -0.9098 l 0.23221,-0.22745 v -1.13726 l 0.2322,-0.22744 v -1.592154 l 0.23221,-0.22745 v -1.59216 l 0.2322,-0.22745 v -2.04705 l 0.23221,-0.22745 h 0.2322 l 0.2322,0.22745 v 0.45491 l 0.23221,0.22744 v 0.4549 l 0.2322,0.22745 v 0.22745 l 0.23221,0.22745 v 0.4549 l 0.2322,0.22746 v 0.45489 l 0.23221,0.22746 v 0.22744 l 0.2322,0.22746 v 0.4549 l 0.23221,0.22744 v 0.22746 l 0.23219,0.22745 v 0.227444 l 0.23221,0.22745 v 0.45491 l 0.23221,0.22744 v 0.22746 l 0.23219,0.22745 v 0.22744 l 0.23221,0.22746 v 0.22745 l 0.2322,0.22745 v 0.22745 l 0.23221,0.22745 v 0.22745 l 0.46441,0.4549 v 0.22745 l 0.2322,0.22745 v 0.22745 l 0.23221,0.22745 v 0.22745 l 0.4644,0.4549 v 0.22745 l 0.69662,0.68234 v 0.22746 l 6.96612,6.82351 h 0.23221 l 2.78644,2.72939 h 0.2322 l 1.85764,1.81961 h 0.2322 l 1.39322,1.36469 h 0.23221 l 0.92882,0.90981 h 0.2322 l 0.69662,0.68234 h 0.2322 l 0.2322,0.22746 h 0.23221 l 0.2322,-0.22746 h 0.2322 v -1.3647 l -0.2322,-0.22745 v -0.68234 l -0.2322,-0.22745 v -0.4549 l -0.23221,-0.22745 v -0.68235 l -0.2322,-0.22745 v -0.4549 l -0.2322,-0.22746 v -0.45489 l -0.23221,-0.22745 v -0.4549 l -0.23221,-0.22745 v -0.45491 l -0.2322,-0.22744 v -0.45491 l -0.2322,-0.22744 v -0.45491 l -0.23221,-0.22745 v -0.22744 l -0.23221,-0.22746 v -0.45489 l -0.2322,-0.22746 v -0.4549 l -0.2322,-0.22745 v -0.4549 l -0.23221,-0.22745 v -0.22745 l -0.2322,-0.22745 v -0.4549 l -0.23221,-0.22745 v -0.22744 l -0.2322,-0.22746 v -0.4549 l -0.2322,-0.22745 v -0.22745 l -0.2322,-0.22744 v -0.45491 l -0.23221,-0.22745 v -0.22745 l -0.2322,-0.22746 v -0.45489 l -0.2322,-0.22745 v -0.22745 l -0.23221,-0.22745 v -0.22745 l -0.2322,-0.22745 v -0.22745 l -0.23221,-0.22745 v -0.4549 l -0.2322,-0.22745 v -0.22745 l -0.23221,-0.22745 v -0.22745 l -0.23221,-0.22745 v -0.22745 l -0.2322,-0.22745 v -0.22746 l -0.2322,-0.22744 v -0.45491 l -0.23221,-0.22744 v -0.22745 l -0.2322,-0.22746 v -0.22745 l -0.2322,-0.227444 v -0.22745 l -0.23221,-0.22746 v -0.22744 l -0.2322,-0.22745 v -0.22745 l -0.2322,-0.22746 v -0.22744 l -0.2322,-0.22746 v -0.22745 l -0.23221,-0.22744 v -0.22746 l -0.2322,-0.22745 v -0.22745 l -0.23221,-0.22745 v -0.22745 l -0.2322,-0.22745 v -0.22745 l -0.2322,-0.22745 v -0.22744 l -0.46441,-0.45491 v -0.22745 l -0.23222,-0.22744 v -0.22746 l -0.2322,-0.22744 v -0.22745 l -0.2322,-0.22746 v -0.22745 l -0.23221,-0.22744 v -0.22746 l -0.4644,-0.4549 v -0.22745 l -0.2322,-0.22745 v -0.22745 l -0.46441,-0.45491 v -0.22744 l -0.46441,-0.4549 v -0.22745 l -0.46441,-0.4549 v -0.22745 l -0.46441,-0.4549 v -0.22745 l -0.4644,-0.4549 v -0.22745 l -0.46442,-0.4549 v -0.22746 l -0.69661,-0.68235 v -0.22744 l -0.4644,-0.45491 v -0.22745 l -0.46441,-0.45489 v -0.22746 l -0.69661,-0.68235 v -0.22745 l -0.69662,-0.68235 v -0.22744 l -0.4644,-0.45491 v -0.22745 l -0.46441,-0.4549 v -0.22745 l -0.69662,-0.68235 v -0.22745 l -0.6966,-0.68235 v -0.22745 l -0.69661,-0.68235 v -0.22745 l -0.46441,-0.4549 v -0.22745 l -0.69662,-0.68235 v -0.22745 l -0.92881,-0.9098 v -0.22745 l -0.92882,-0.9098 v -0.22745 l -2.32204,-2.2745 v -0.22746 l -1.85763,-1.81959 h -0.23221 l -2.08983,-2.04706 h -0.23221 l -1.39322,-1.3647 h -0.23221 l -1.39322,-1.3647 h -0.23221 l -0.696614,-0.68235 h -0.2322 l -0.69661,-0.68235 h -0.23221 l -0.69661,-0.68235 h -0.23221 l -0.4644,-0.4549 h -0.23221 l -0.4644,-0.4549 h -0.23221 l -0.46441,-0.4549 h -0.2322 l -0.2322,-0.22745 h -0.23221 l -0.46441,-0.4549 h -0.2322 l -0.2322,-0.22745 h -0.23221 l -0.4644,-0.4549 h -0.23221 l -0.23221,-0.22745 h -0.2322 l -0.46441,-0.4549 h -0.2322 l -0.2322,-0.22745 h -0.23221 l -0.2322,-0.22745 0.2322,-0.22745 h 0.46441 l 0.2322,0.22745 h 0.46441 l 0.2322,0.22745 h 0.46442 l 0.2322,0.22745 h 0.46441 l 0.2322,0.22745 h 0.46441 l 0.2322,0.22745 h 0.46441 l 0.2322,0.22745 h 0.46441 l 0.23221,0.22745 h 0.4644 l 0.23221,0.22745 h 0.4644 l 0.23221,0.22745 h 0.46441 l 0.2322,0.22745 h 0.46441 l 0.23221,0.22745 h 0.4644 l 0.23221,0.22745 h 0.464404 l 0.23221,0.22745 h 0.46441 l 0.2322,0.22745 h 0.2322 l 0.23221,0.22745 h 0.46441 l 0.2322,0.22745 h 0.23221 l 0.2322,0.22745 h 0.46441 l 0.2322,0.22745 h 0.23221 l 0.2322,0.22746 h 0.46441 l 0.2322,0.22744 h 0.2322 l 0.23221,0.22745 h 0.2322 l 0.23221,0.22746 h 0.46441 l 0.2322,0.22744 h 0.23221 l 0.2322,0.22745 h 0.2322 l 0.23221,0.22746 h 0.46441 l 0.2322,0.22744 h 0.23221 l 0.2322,0.22745 h 0.2322 l 0.2322,0.22746 h 0.23221 l 0.2322,0.22745 h 0.2322 l 0.23221,0.22744 h 0.2322 l 0.23221,0.22745 h 0.2322 l 0.46441,0.4549 h 0.23221 l 0.2322,0.22745 h 0.2322 l 0.46441,0.4549 h 0.23221 l 0.2322,0.22745 h 0.23221 l 0.46441,0.4549 h 0.23219 l 0.69661,0.68236 h 0.23221 l 1.85763,1.81959 v 0.22746 l 0.23221,0.22745 v 0.22744 h 0.2322 l 0.46441,0.45491 h 0.2322 l 0.23221,-0.22745 h 0.23221 v -1.59215 l -0.23221,-0.22746 v -2.95685 l 0.23221,-0.22744 v -0.22746 l -0.23221,-0.22745 0.23221,-0.22744 v -0.9098 l 0.2322,-0.22746 v -0.45489 l 0.2322,-0.22746 0.2322,0.22746 v 0.22744 l 0.23221,0.22745 v 0.22746 l 0.2322,0.22744 v 0.22745 l 0.2322,0.22746 v 0.22745 l 0.23221,0.22744 v 0.22745 l 0.23221,0.22746 v 0.22744 l 0.2322,0.22745 v 0.22746 l 0.2322,0.22744 v 0.22745 l 0.23221,0.22746 v 0.45489 l 0.2322,0.22746 v 0.22745 l 0.23221,0.22745 v 0.22745 l 0.2322,0.22744 v 0.22745 l 0.23221,0.22746 v 0.22745 l 0.2322,0.22744 v 0.22745 l 0.2322,0.22746 v 0.22745 l 0.23221,0.22744 v 0.45491 l 0.4644,0.4549 v 0.22745 l 0.2322,0.22744 v 0.22746 l 0.23221,0.22745 v 0.22745 l 0.4644,0.4549 v 0.22745 l 0.23222,0.22745 h 0.2322 l 0.23221,0.22745 h 0.2322 l 0.2322,0.22745 h 0.23221 l 0.2322,0.22745 h 0.46441 l 0.2322,-0.22745 h 0.46441 l 0.2322,0.22745 0.2322,-0.22745 h 0.23221 l 0.2322,-0.22745 v -0.4549 l 0.2322,-0.22745 v -0.4549 l -0.2322,-0.22745 v -0.9098 l -0.2322,-0.22746 v -0.90979 l -0.23221,-0.22745 v -1.36471 l 0.23221,-0.22744 1.16102,1.13724 v 0.22745 l 0.92882,0.90981 v 0.22745 l 0.92881,0.90979 v 0.22746 l 0.69661,0.68235 v 0.22745 l 0.69661,0.68235 v 0.22745 l 0.69662,0.68235 v 0.22745 l 0.92882,0.9098 v 0.22745 l 0.46441,0.4549 h 0.6966 l 0.23221,0.22746 h 0.46441 l 0.2322,0.22744 h 0.46441 l 0.2322,0.22745 h 0.23221 l 0.2322,0.22746 h 0.23221 l 0.23221,0.22744 h 0.2322 l 0.2322,0.22745 h 0.46441 l 0.2322,0.22746 h 0.2322 l 0.23221,0.22745 h 0.2322 l 0.23221,0.22744 h 0.2322 l 0.2322,0.22745 h 0.23221 l 0.23221,0.22746 h 0.4644 l 0.2322,0.22744 h 0.23221 l 0.2322,0.22745 h 0.23221 l 0.2322,0.22745 h 0.46441 l 0.2322,0.22745 h 0.23221 l 0.2322,0.22745 h 0.23221 l 0.2322,0.22745 h 0.2322 l 0.23221,0.22745 h 0.46441 l 0.2322,0.22745 h 0.23221 l 0.2322,0.22745 h 0.2322 l 0.23221,0.22745 h 0.2322 l 0.2322,0.22746 h 0.23221 l 0.2322,0.22745 h 0.23221 l 0.2322,0.22744 h 0.23221 l 0.2322,0.22746 h 0.2322 l 0.46441,0.45489 h 0.23221 l 0.2322,0.22745 h 0.23221 l 0.2322,0.22746 h 0.2322 l 0.46441,0.45489 h 0.2322 l 0.2322,0.22746 h 0.23221 l 0.46441,0.45489 h 0.2322 l 0.23221,0.22745 h 0.2322 l 0.46441,0.45491 h 0.23221 l 0.2322,0.22744 h 0.2322 l 0.23221,0.22746 h 0.2322 l 0.46441,0.45489 h 0.2322 l 0.23221,0.22746 h 0.2322 l 0.23221,0.22745 h 0.23219 l 0.46441,0.4549 h 0.23221 l 0.23221,0.22745 h 0.2322 l 0.23221,0.22745 h 0.2322 l 0.46441,0.4549 h 0.2322 l 0.2322,0.22745 h 0.23221 l 0.46441,0.4549 h 0.2322 l 0.69661,0.68235 h 0.92881 l 0.23222,-0.22745 h 0.2322 v -0.68235 l -0.2322,-0.22745 v -0.22745 l -0.46441,-0.4549 v -0.22745 l -0.46441,-0.4549 v -0.22745 l -0.23221,-0.22745 v -0.22746 l -0.4644,-0.45489 v -0.22746 l -0.46441,-0.45489 v -0.22746 l -0.46441,-0.45489 v -0.22745 l -0.46441,-0.4549 v -0.22745 l -0.2322,-0.22746 v -0.22745 l -0.69661,-0.68235 v -0.22744 l -0.23221,-0.22745 v -0.22746 l -0.46441,-0.4549 v -0.22745 l -0.46441,-0.4549 v -0.22745 l -0.4644,-0.4549 v -0.22745 l -0.46441,-0.4549 v -0.22745 l -0.46441,-0.45489 v -0.22746 l -0.46441,-0.45489 v -0.22746 l -0.46441,-0.45489 v -0.22746 l -0.4644,-0.4549 v -0.22745 l -0.69662,-0.68235 v -0.22745 l -0.46441,-0.4549 v -0.22745 l -0.69661,-0.68235 v -0.22745 l -0.46441,-0.4549 v -0.22745 l -0.69661,-0.68236 v -0.22744 l -0.92881,-0.9098 v -0.22746 l -0.69662,-0.68235 v -0.22745 l -0.92881,-0.9098 v -0.22744 l -0.92882,-0.90981 v -0.22745 l -0.92881,-0.90979 v -0.22746 l -0.92882,-0.9098 v -0.22744 l -1.85764,-1.81961 v -0.22745 l -2.78644,-2.7294 h -0.23221 l -1.62542,-1.59215 h -0.2322 l -1.16103,-1.13725 h -0.23221 l -0.69661,-0.68235 h -0.2322 l -0.46441,-0.45491 h -0.2322 l -0.46441,-0.4549 h -0.2322 l -0.46441,-0.45489 h -0.23221 l -0.4644,-0.4549 h -0.23221 l -0.46441,-0.4549 h -0.2322 l -0.23221,-0.22745 h -0.2322 l -0.2322,-0.22746 h -0.23221 l -0.2322,-0.22744 h -0.2322 l -0.46441,-0.4549 h -0.2322 l -0.23221,-0.22746 h -0.2322 l -0.23221,-0.22745 h -0.46441 l -0.23221,-0.22744 h -0.2322 l -0.2322,-0.22745 h -0.23221 l -0.2322,-0.22746 h -0.2322 l -0.23221,-0.22744 h -0.4644 l -0.2322,-0.22745 h -0.46441 l -0.23221,-0.22746 h -0.2322 l -0.2322,-0.22745 h -0.46441 l -0.23222,-0.22744 h -0.4644 l -0.23221,-0.22746 h -0.6966 l -0.23221,-0.22745 h -0.4644 l -0.23221,-0.22744 h -0.69661 l -0.23221,-0.22745 h -0.4644 l -0.23221,-0.22746 h -0.69661 l -0.23221,-0.22745 h -0.92881 l -0.23221,-0.22744 h -0.69661 l -0.2322,-0.22746 h -0.92882 l -0.2322,-0.22745 H 114.242 l -0.23221,-0.22744 h -1.39321 l -0.23221,-0.22746 h -1.85763 l -0.23221,-0.22745 h -2.55424 l -0.2322,-0.22745 h -6.50172 l -0.2322,0.22745 h -3.250864 l -0.23221,0.22745 h -2.55424 l -0.2322,0.22746 h -2.32204 l -0.23221,0.22744 h -2.55424 l -0.2322,-0.22744 0.2322,-0.22746 h 0.46441 l 0.2322,-0.22745 h 0.2322 l 0.23221,-0.22745 h 0.2322 l 0.23221,-0.22745 h 0.46441 l 0.2322,-0.22745 h 0.2322 l 0.23221,-0.22745 h 0.2322 l 0.2322,-0.22745 h 0.46442 l 0.2322,-0.22745 h 0.2322 l 0.23221,-0.22745 h 0.4644 l 0.23221,-0.22745 h 0.2322 l 0.23221,-0.22745 h 0.4644 l 0.23221,-0.22745 h 0.46441 l 0.2322,-0.22745 h 0.46441 l 0.2322,-0.22745 h 0.46441 l 0.23221,-0.22745 h 0.4644 l 0.23221,-0.22745 h 0.69661 l 0.2322,-0.22745 h 0.696614 l 0.23221,-0.22745 h 0.69661 l 0.2322,-0.22745 h 0.69662 l 0.2322,-0.22745 h 0.69662 l 0.2322,-0.22745 h 0.92881 l 0.23221,-0.22745 h 0.92881 l 0.23221,-0.22745 h 0.92882 l 0.2322,-0.22746 h 1.16102 l 0.23221,-0.22744 h 1.62542 l 0.2322,-0.22745 h 2.78646 l 0.2322,-0.22745 h 2.08983 l 0.23221,0.22745 h 1.62543 l 0.2322,0.22745 h 0.69662 l 0.2322,0.22744 h 1.39322 l 0.23221,-0.22744 v -0.22745 l 0.2322,-0.22745 v -0.68236 l -0.69662,-0.68234 h -0.2322 l -0.46441,-0.45491 h -0.2322 l -0.4644,-0.4549 h -0.23221 l -0.69661,-0.68235 h -0.23221 l -0.46441,-0.45489 h -0.2322 l -0.2322,-0.22746 0.2322,-0.22745 h 1.39322 l 0.23221,0.22745 h 1.62542 l 0.23221,0.22746 h 9.52037 l 0.2322,-0.22746 h 4.41188 l 0.2322,-0.22745 h 4.17967 l 0.23221,-0.22745 h 3.48306 l 0.2322,-0.22745 h 2.08984 l 0.23221,-0.22744 h 0.92881 l 0.46441,-0.45491 v -0.45489 l -0.46441,-0.45491 h -0.2322 l -0.23221,-0.22744 h -0.4644 l -0.23221,-0.22745 h -0.4644 l -0.23221,-0.22746 h -0.23221 l -0.2322,-0.22745 h -0.2322 l -0.23221,-0.22744 h -0.46441 l -0.2322,-0.22746 h -0.23221 l -0.2322,-0.22745 h -0.46441 l -0.2322,-0.22744 h -0.46441 l -0.2322,-0.22746 h -0.2322 l -0.23221,-0.22745 h -0.46441 l -0.2322,-0.22745 h -0.46441 l -0.23221,-0.22745 h -0.4644 l -0.23221,-0.22745 h -0.4644 l -0.2322,-0.22745 h -0.46442 l -0.2322,-0.22745 h -0.46441 l -0.23221,-0.22745 h -0.4644 l -0.23221,-0.22744 h -0.69661 l -0.2322,-0.22746 h -0.46441 l -0.2322,-0.22745 h -0.46441 l -0.23221,-0.22745 h -0.69661 l -0.23221,-0.22745 h -0.4644 l -0.23221,-0.22745 h -0.69661 l -0.2322,-0.22744 h -0.46441 l -0.2322,-0.22746 h -0.69661 l -0.23221,-0.22745 h -0.69662 l -0.2322,-0.22745 h -0.69661 l -0.2322,-0.22745 h -0.92881 l -0.23221,-0.22745 h -0.92881 l -0.23221,-0.22745 h -0.69662 l -0.2322,-0.22745 h -0.92881 l -0.23221,-0.22745 h -1.16102 l -0.2322,-0.22745 h -1.16103 l -0.2322,-0.22745 h -1.39322 l -0.23221,-0.22745 h -1.85763 l -0.2322,-0.22746 h -7.19832 l -0.23221,0.22746 h -1.16102 l -0.2322,0.22745 h -0.92882 l -0.23221,0.22745 h -0.69661 l -0.2322,0.22745 h -0.46441 l -0.2322,0.22745 h -0.46441 l -0.2322,0.22745 h -0.46441 l -0.23221,0.22745 h -0.46441 l -0.2322,0.22745 h -0.46441 l -0.2322,0.22745 h -0.23221 l -0.2322,0.22745 h -0.464414 l -0.2322,0.22745 h -0.23221 l -0.2322,0.22746 h -0.2322 l -0.23221,0.22744 h -0.46441 l -0.2322,0.22745 h -0.2322 l -0.23221,0.22745 h -0.23221 l -0.2322,0.22745 h -0.2322 l -0.23221,0.22745 h -0.2322 l -0.2322,0.22746 h -0.23221 l -0.2322,0.22744 h -0.23221 l -0.2322,0.22745 h -0.2322 l -0.23221,0.22745 h -0.2322 l -0.23221,0.22745 h -0.2322 l -0.2322,0.22745 h -0.23221 l -0.2322,0.22745 h -0.2322 l -0.23221,0.22745 h -0.23221 l -0.2322,0.22745 h -0.2322 l -0.23221,0.22746 h -0.2322 l -0.2322,0.22744 h -0.23221 l -0.46441,0.45491 h -0.2322 l -0.23221,0.22744 h -0.2322 l -0.2322,0.22745 h -0.23221 l -0.4644,0.45491 h -0.23221 l -0.4644,0.45489 h -0.23221 l -0.46441,0.4549 h -0.2322 l -0.46441,0.45491 h -0.2322 l -0.69662,0.68234 h -0.2322 l -0.69661,0.68236 h -0.23221 l -0.69661,0.68235 h -0.23221 l -0.92881,0.90979 h -0.2322 l -1.39323,1.36471 h -0.2322 l -1.16102,1.13724 -0.232205,-0.22744 v -0.9098 l 0.232205,-0.22746 v -0.22745 l 0.2322,-0.22744 v -0.45491 l 0.2322,-0.22745 v -0.4549 l 0.23221,-0.22745 v -0.22744 l 0.2322,-0.22746 v -0.45489 l 0.23221,-0.22746 v -0.22745 l 0.2322,-0.22745 v -0.45489 l 0.23221,-0.22745 v -0.22746 l 0.2322,-0.22745 v -0.22744 l 0.23221,-0.22746 v -0.45489 l 0.2322,-0.22745 v -0.22746 l 0.2322,-0.22745 v -0.22744 l 0.23221,-0.22746 v -0.45489 l 0.2322,-0.22746 v -0.4549 l 0.2322,-0.22745 v -0.22745 l 0.23221,-0.22745 v -0.4549 l 0.23221,-0.22744 v -0.45491 l 0.23219,-0.22745 v -0.22745 l 0.23221,-0.22745 v -0.4549 l 0.23221,-0.22745 v -0.4549 l 0.2322,-0.22745 v -0.4549 l 0.2322,-0.22745 v -0.4549 l 0.23221,-0.22745 v -0.4549 l 0.2322,-0.22745 v -0.22745 l 0.2322,-0.22746 v -0.4549 l 0.23221,-0.22745 v -0.22744 l 0.2322,-0.22745 v -0.22746 l 0.46441,-0.45489 v -1.59216 l -0.92882,-0.9098 0.23221,-0.22744 h 0.2322 v -0.22746 l 0.23221,-0.22745 v -0.22744 l 0.2322,-0.22746 h 0.23221 l 0.2322,-0.22745 v -0.22745 l 0.69661,-0.68235 v -0.22744 l 0.46441,-0.45491 v -0.22745 l 0.23221,-0.22745 v -0.22745 l 0.4644,-0.4549 v -0.22745 l 0.23221,-0.22745 v -0.22745 l 0.4644,-0.45489 v -0.22746 l 0.23221,-0.22745 v -0.22745 l 0.4644,-0.4549 v -0.22745 l 0.23221,-0.22745 v -0.22745 l 0.2322,-0.22745 v -0.22745 l 0.23221,-0.22745 v -0.4549 l 0.2322,-0.22745 v -0.22745 l 0.23221,-0.22745 v -0.4549 l 0.2322,-0.22746 v -0.22744 l 0.2322,-0.22745 v -0.4549 l 0.23221,-0.22745 v -0.22746 l 0.2322,-0.22744 v -0.4549 l 0.2322,-0.22745 v -0.22745 l 0.23221,-0.22746 v -0.22744 l 0.23221,-0.22745 v -0.22746 l 0.2322,-0.22744 v -0.22745 l 0.2322,-0.22746 v -0.22745 l 0.23221,-0.22744 v -0.22746 l 0.2322,-0.22745 v -0.22744 l 0.2322,-0.22746 v -0.22745 l 0.23221,-0.22745 v -0.22744 l 0.2322,-0.22746 v -0.22745 l 0.23221,-0.22744 v -0.22746 l 0.2322,-0.22745 v -0.22745 l 0.2322,-0.22745 v -0.22745 l 0.23221,-0.22744 v -0.22746 l 0.2322,-0.22745 v -0.22745 l 0.23221,-0.22745 v -0.45489 l 0.2322,-0.22746 v -0.22745 l 0.2322,-0.22744 v -0.22746 l 0.23221,-0.22745 v -0.22745 l 0.2322,-0.22745 v -0.22745 l 0.2322,-0.22745 v -0.22745 l 0.23221,-0.22745 v -0.22745 l 0.23221,-0.22745 v -0.22745 l 0.4644,-0.4549 v -0.22745 l 0.69662,-0.68235 v -0.22745 l 0.4644,-0.4549 v -0.68235 l 0.23221,-0.22745 -0.23221,-0.22745 z"
     fill="none"
     stroke="#007c8c"
     stroke-width="0.459632"
     id="path1" />
</svg>
